<svg width="26" height="15" viewBox="0 0 26 15" fill="none" xmlns="http://www.w3.org/2000/svg">
<path fill-rule="evenodd" clip-rule="evenodd" d="M12.2983 13.2852L12.9987 12.5845L24.2853 1.29411C24.4737 1.10568 24.7292 0.999848 24.9956 0.999848C25.262 0.999848 25.5175 1.10568 25.7058 1.29411C25.8942 1.48254 26 1.73813 26 2.00461C26 2.2711 25.8942 2.52665 25.7058 2.71508L13.7157 14.7032C13.5278 14.8912 13.2728 14.9968 13.007 14.9968C13.0042 14.9968 13.0013 14.9968 12.9985 14.9968C12.7357 14.9946 12.4842 14.8892 12.2983 14.7032C12.1103 14.5151 12.0047 14.2601 12.0047 13.9942C12.0047 13.7282 12.1103 13.4732 12.2983 13.2852ZM12.2843 14.7062L0.294197 2.71209C0.10583 2.52366 -5.64812e-07 2.26807 -5.6804e-07 2.00159C-5.71267e-07 1.73511 0.10583 1.47955 0.294197 1.29112C0.482565 1.10269 0.738038 0.996826 1.00443 0.996826C1.27082 0.996826 1.52631 1.10269 1.71468 1.29112L12.9987 12.5845L13.6987 13.2852C13.8867 13.4732 13.9923 13.7282 13.9923 13.9942C13.9923 14.2601 13.8867 14.5151 13.6987 14.7032C13.5128 14.8892 13.2613 14.9946 12.9985 14.9968C12.9957 14.9968 12.9928 14.9968 12.99 14.9968C12.7242 14.9968 12.4692 14.8912 12.2813 14.7032L12.2843 14.7062Z" fill="white"/>
<path d="M12.9987 12.5845L12.2983 13.2852C12.1103 13.4732 12.0047 13.7282 12.0047 13.9942C12.0047 14.2601 12.1103 14.5151 12.2983 14.7032C12.4842 14.8892 12.7357 14.9946 12.9985 14.9968C13.2613 14.9946 13.5128 14.8892 13.6987 14.7032C13.8867 14.5151 13.9923 14.2601 13.9923 13.9942C13.9923 13.7282 13.8867 13.4732 13.6987 13.2852L12.9987 12.5845Z" fill="white"/>
</svg>
