<svg width="40" height="36" viewBox="0 0 40 36" fill="none" xmlns="http://www.w3.org/2000/svg">
<path fill-rule="evenodd" clip-rule="evenodd" d="M38.8732 35.0192C38.1025 35.6571 37.1316 36.0033 36.1311 35.9969H3.68899C2.7353 35.9694 1.81867 35.6214 1.08697 35.0092C0.440843 34.3417 0.0555749 33.4646 0.00113477 32.5373V25.3317C-0.0290577 24.5251 0.0702551 23.7189 0.295339 22.9438C0.489238 22.2677 0.762721 21.617 1.11 21.0053L4.64072 14.6724C4.65773 14.6404 4.67674 14.6093 4.69676 14.5793C5.09863 13.9775 5.6119 13.4581 6.20892 13.0491C6.87272 12.6668 7.62558 12.4663 8.39161 12.4677H30.6929C30.7216 12.4657 30.7503 12.4657 30.779 12.4677C31.5694 12.5179 32.3408 12.7322 33.0437 13.0972C33.6832 13.5042 34.2462 14.0205 34.707 14.6224C34.7338 14.6561 34.7589 14.6912 34.7821 14.7274L38.9733 21.4667C39.6093 22.6094 39.9615 23.8883 40.0001 25.1955V32.3862C40.0036 32.879 39.9053 33.3671 39.7114 33.8202C39.5175 34.2733 39.2322 34.6815 38.8732 35.0192ZM2.67719 32.4171V32.4362C2.70417 32.6451 2.78221 32.8441 2.90439 33.0156L2.92338 33.0346L2.94241 33.0526C3.1933 33.1837 3.46861 33.2614 3.75102 33.2808H36.1311C36.4696 33.2807 36.8005 33.1812 37.0828 32.9946C37.2171 32.8535 37.2988 32.6704 37.314 32.4762V25.2947C37.314 25.2736 37.306 25.2536 37.305 25.2316L26.2715 25.2396L26.2114 25.4738C25.8641 26.8824 25.0549 28.1339 23.9128 29.0286C22.7708 29.9233 21.3618 30.4095 19.9111 30.4095C18.4603 30.4095 17.0513 29.9233 15.9093 29.0286C14.7672 28.1339 13.958 26.8824 13.6107 25.4738L13.5516 25.2396L2.67719 25.2326C2.67719 25.2516 2.67719 25.2696 2.67719 25.2886V32.4171ZM32.5514 16.2496L32.5383 16.2326C32.3011 15.9368 32.0223 15.6769 31.7107 15.461C31.376 15.3115 31.0183 15.2202 30.6529 15.1908H30.6248H8.39363C8.1272 15.1896 7.86391 15.2481 7.62304 15.3619C7.3639 15.5556 7.13664 15.7886 6.94951 16.0524L6.9395 16.0685L3.43678 22.3634L3.39876 22.4254C3.39368 22.4354 3.388 22.4451 3.38175 22.4544C3.37174 22.4735 3.36772 22.4955 3.35771 22.5145L14.7666 22.5225C15.1242 22.5259 15.4659 22.6708 15.717 22.9255C15.9681 23.1801 16.1082 23.5239 16.1066 23.8815C16.1228 24.8827 16.5319 25.8375 17.2457 26.5398C17.9595 27.2421 18.9207 27.6357 19.9221 27.6357C20.9234 27.6357 21.8846 27.2421 22.5984 26.5398C23.3122 25.8375 23.7213 24.8827 23.7375 23.8815C23.7359 23.5239 23.876 23.1801 24.1271 22.9255C24.3782 22.6708 24.7199 22.5259 25.0775 22.5225L36.4614 22.5165L32.5514 16.2496ZM29.8933 9.9227C29.7689 10.0789 29.6109 10.205 29.4311 10.2916C29.2512 10.3783 29.0541 10.4232 28.8545 10.4231C28.4964 10.4194 28.1544 10.2738 27.9036 10.0183C27.6527 9.76275 27.5135 9.4181 27.5164 9.06003C27.5177 8.75043 27.6235 8.45031 27.8167 8.20836L30.879 4.37641C30.9882 4.23848 31.1238 4.1237 31.2778 4.0388C31.4319 3.9539 31.6013 3.90058 31.7762 3.88194C31.9512 3.86331 32.128 3.87973 32.2965 3.93026C32.465 3.98079 32.6217 4.06441 32.7575 4.17624H32.7635C33.0406 4.40515 33.2167 4.73363 33.2542 5.09107C33.2916 5.44851 33.1873 5.80641 32.9637 6.08775L29.8933 9.9227ZM19.8685 10.4792C19.6911 10.478 19.5157 10.4418 19.3523 10.3728C19.1889 10.3038 19.0407 10.2033 18.9162 10.077C18.7916 9.95068 18.6932 9.80107 18.6265 9.63671C18.5598 9.47234 18.5262 9.29647 18.5275 9.1191V1.30402C18.5275 0.948617 18.6687 0.607811 18.92 0.356505C19.1713 0.105199 19.5121 -0.0360107 19.8675 -0.0360107C20.2229 -0.0360107 20.5637 0.105199 20.8151 0.356505C21.0664 0.607811 21.2075 0.948617 21.2075 1.30402V9.1191C21.2094 9.47656 21.0695 9.82019 20.8186 10.0747C20.5676 10.3293 20.226 10.474 19.8685 10.4771V10.4792ZM11.0387 10.323C10.8366 10.3231 10.6372 10.2771 10.4556 10.1885C10.2741 10.0998 10.1151 9.97098 9.99087 9.81165L6.97453 5.98165C6.76526 5.68864 6.67944 5.32518 6.7356 4.96952C6.79176 4.61385 6.98538 4.29443 7.27475 4.08016C7.54532 3.88007 7.88172 3.79011 8.21606 3.82837C8.55039 3.86664 8.85779 4.03033 9.07616 4.28637L12.0855 8.1163C12.3067 8.39994 12.4078 8.75902 12.3672 9.11641C12.3266 9.47379 12.1475 9.80103 11.8683 10.0278C11.6333 10.2174 11.3407 10.3215 11.0387 10.323Z" fill="#FAFAFA" fill-opacity="0.6"/>
</svg>
