<?xml version="1.0" encoding="utf-8"?>
<!-- Generator: Adobe Illustrator 23.0.2, SVG Export Plug-In . SVG Version: 6.00 Build 0)  -->
<svg version="1.1" id="ntoken" xmlns="http://www.w3.org/2000/svg" xmlns:xlink="http://www.w3.org/1999/xlink" x="0px" y="0px"
	 viewBox="0 0 64 24" style="enable-background:new 0 0 64 24;" xml:space="preserve">
<style type="text/css">
	.st0{opacity:0.5;fill-rule:evenodd;clip-rule:evenodd;enable-background:new    ;}
	.st1{fill-rule:evenodd;clip-rule:evenodd;fill:#FFFFFF;}
</style>
<g>
	<path id="椭圆_17" class="st0" d="M32,0c13.1,0,24.7,3.1,32,8C50.7,25.7,25.7,29.3,8,16c-3-2.3-5.7-5-8-8C7.3,3.1,18.9,0,32,0z"
		/>
	<path id="NToken-2" class="st1" d="M10.6,7.2v8.6H12V9.5l0,0l4.3,6.3h1.4V7.2h-1.4v6.2l0,0L12,7.2H10.6L10.6,7.2z M18.8,7.2v1.2
		h2.8v7.4H23V8.4h2.8V7.2H18.8L18.8,7.2z M29.6,9.4c-0.9,0-1.7,0.3-2.3,0.9c-1.1,1.4-1.1,3.3,0,4.7c1.3,1.2,3.3,1.2,4.6,0
		c1.1-1.4,1.1-3.3,0-4.7C31.2,9.7,30.4,9.4,29.6,9.4L29.6,9.4z M29.6,10.5c0.5,0,1,0.2,1.3,0.7c0.5,0.9,0.5,2,0,3
		c-0.5,0.7-1.6,0.9-2.3,0.4c-0.1-0.1-0.3-0.2-0.4-0.4c-0.3-0.4-0.4-1-0.4-1.5s0.1-1,0.4-1.5C28.5,10.8,29,10.5,29.6,10.5L29.6,10.5z
		 M33.9,7.1v8.7h1.4v-2.2l0.6-0.6l2.2,2.8h1.8l-3-3.6l2.7-2.6h-1.8L35.2,12V7L33.9,7.1L33.9,7.1z M43.2,9.4c-0.8,0-1.6,0.3-2.2,0.9
		c-0.6,0.6-0.8,1.5-0.8,2.3c-0.1,0.9,0.3,1.8,0.9,2.4c0.6,0.6,1.4,0.9,2.2,0.9s1.5-0.2,2.1-0.7c0.4-0.4,0.7-0.9,0.9-1.5h-1.4
		c-0.1,0.3-0.3,0.5-0.6,0.8c-0.3,0.2-0.7,0.3-1,0.3c-0.4,0-0.8-0.1-1.1-0.5s-0.5-0.8-0.5-1.3h4.6c0.1-0.9-0.2-1.9-0.7-2.6
		C44.9,9.7,44.1,9.4,43.2,9.4L43.2,9.4z M43.2,10.5c0.8-0.1,1.5,0.5,1.6,1.3c0,0.1,0,0.1,0,0.2h-3.2c0-0.4,0.2-0.8,0.5-1.1
		C42.4,10.6,42.8,10.5,43.2,10.5L43.2,10.5z M50.5,9.4c-0.4,0-0.7,0.1-1,0.2c-0.3,0.2-0.6,0.4-0.8,0.7V9.6h-1.4v6.2h1.4v-3.7
		c0-0.4,0.2-0.8,0.5-1.1c0.2-0.2,0.6-0.4,0.9-0.4c0.7-0.1,1.3,0.4,1.4,1.2c0,0.1,0,0.2,0,0.4v3.7h1.4V12
		C52.8,10.3,52.1,9.4,50.5,9.4L50.5,9.4z"/>
</g>
</svg>
