<svg width="26" height="15" viewBox="0 0 26 15" fill="none" xmlns="http://www.w3.org/2000/svg">
<path fill-rule="evenodd" clip-rule="evenodd" d="M13.7017 2.70846L13.0013 3.4091L1.71466 14.6995C1.52629 14.888 1.27082 14.9938 1.00443 14.9938C0.738037 14.9938 0.48255 14.888 0.294182 14.6995C0.105814 14.5111 -1.74924e-06 14.2555 -1.75242e-06 13.989C-1.7556e-06 13.7226 0.105814 13.467 0.294182 13.2786L12.2843 1.29048C12.4722 1.10245 12.7272 0.996826 12.993 0.996826C12.9958 0.996826 12.9987 0.996838 13.0015 0.996862C13.2643 0.999089 13.5158 1.10445 13.7017 1.29048C13.8897 1.47851 13.9953 1.73357 13.9953 1.99949C13.9953 2.2654 13.8897 2.52043 13.7017 2.70846ZM13.7157 1.28749L25.7058 13.2816C25.8942 13.47 26 13.7256 26 13.9921C26 14.2585 25.8942 14.5141 25.7058 14.7025C25.5174 14.891 25.262 14.9968 24.9956 14.9968C24.7292 14.9968 24.4737 14.891 24.2853 14.7025L13.0013 3.4091L12.3013 2.70846C12.1133 2.52043 12.0077 2.2654 12.0077 1.99949C12.0077 1.73357 12.1133 1.47851 12.3013 1.29048C12.4872 1.10445 12.7387 0.999088 13.0015 0.996862C13.0043 0.996838 13.0072 0.996826 13.01 0.996826C13.2758 0.996826 13.5308 1.10245 13.7187 1.29048L13.7157 1.28749Z" fill="white"/>
<path d="M13.0013 3.4091L13.7017 2.70846C13.8897 2.52043 13.9953 2.2654 13.9953 1.99949C13.9953 1.73357 13.8897 1.47851 13.7017 1.29048C13.5158 1.10445 13.2643 0.999089 13.0015 0.996862C12.7387 0.999088 12.4872 1.10445 12.3013 1.29048C12.1133 1.47851 12.0077 1.73357 12.0077 1.99949C12.0077 2.2654 12.1133 2.52043 12.3013 2.70846L13.0013 3.4091Z" fill="white"/>
</svg>
